<svg width="18" height="18" viewBox="0 0 18 18" fill="none" xmlns="http://www.w3.org/2000/svg">
<path d="M10.1154 2.34512C9.97632 2.18644 9.8047 2.05961 9.6122 1.97328C9.4197 1.88695 9.21084 1.84315 8.99988 1.84487C8.91336 1.84691 8.82787 1.86418 8.74733 1.89587C8.42296 1.93383 8.12286 2.08655 7.90125 2.32644C6.07093 4.30871 2.99988 8.0067 2.99988 10.4999C2.99988 12.0912 3.63202 13.6173 4.75724 14.7425C5.88246 15.8677 7.40858 16.4999 8.99988 16.4999C10.5912 16.4999 12.1173 15.8677 13.2425 14.7425C14.3677 13.6173 14.9999 12.0912 14.9999 10.4999C14.9999 8.0067 11.9288 4.30871 10.1154 2.34512ZM4.49988 10.4999C4.49988 9.01172 6.32512 6.39662 8.24988 4.17971V14.9321C7.20242 14.7544 6.25152 14.212 5.56529 13.401C4.87906 12.5899 4.50168 11.5623 4.49988 10.4999Z" fill="#384347"/>
</svg>
