<svg width="18" height="18" viewBox="0 0 18 18" fill="none" xmlns="http://www.w3.org/2000/svg">
<g clip-path="url(#clip0)">
<rect x="1.80005" y="12.6" width="13.5" height="2.7" fill="#384347"/>
<rect x="1.80005" y="7.19995" width="9" height="2.7" fill="#384347"/>
<circle cx="12.15" cy="11.25" r="5.85" fill="white"/>
<ellipse cx="12.1501" cy="11.2501" rx="4.29" ry="4.29" fill="#384347"/>
<path d="M17.0572 8.2997L16.0305 7.2441C16.003 7.21583 15.9657 7.19995 15.9268 7.19995C15.8879 7.19995 15.8506 7.21583 15.8231 7.2441L12.1801 11.0248L11.1772 9.95849C11.1496 9.93022 11.1123 9.91434 11.0735 9.91434C11.0346 9.91434 10.9973 9.93022 10.9698 9.95849L9.94309 11.0141C9.91559 11.0424 9.90015 11.0807 9.90015 11.1207C9.90015 11.1607 9.91559 11.199 9.94309 11.2273L12.0764 13.4558C12.1039 13.4841 12.1412 13.5 12.1801 13.5C12.219 13.5 12.2563 13.4841 12.2838 13.4558L17.0572 8.51293C17.0847 8.48465 17.1001 8.4463 17.1001 8.40631C17.1001 8.36633 17.0847 8.32798 17.0572 8.2997Z" fill="white"/>
<rect x="1.80005" y="1.80005" width="13.5" height="2.7" fill="#384347"/>
</g>
<defs>
<clipPath id="clip0">
<rect width="18" height="18" fill="white"/>
</clipPath>
</defs>
</svg>
